<mxfile host="Electron" modified="2023-10-18T19:55:07.060Z" agent="Mozilla/5.0 (Macintosh; Intel Mac OS X 10_15_7) AppleWebKit/537.36 (KHTML, like Gecko) draw.io/22.0.2 Chrome/114.0.5735.289 Electron/25.8.4 Safari/537.36" etag="QqIISFMmyCEq3lvswNv2" version="22.0.2" type="device">
  <diagram name="Strona-1" id="xaJ6AzcE9XyTcHHcA2mU">
    <mxGraphModel dx="2414" dy="1617" grid="1" gridSize="10" guides="1" tooltips="1" connect="1" arrows="1" fold="1" page="1" pageScale="1" pageWidth="1169" pageHeight="827" math="0" shadow="0">
      <root>
        <mxCell id="0" />
        <mxCell id="1" parent="0" />
        <mxCell id="7Zuj4coKEwmVLSEirP38-3" value="pudełka" style="strokeWidth=2;whiteSpace=wrap;html=1;align=center;fontSize=13;fontFamily=Helvetica;fontColor=#000000;strokeColor=#d79b00;fillColor=#ffe6cc;" parent="1" vertex="1">
          <mxGeometry x="351" y="158" width="70" height="70" as="geometry" />
        </mxCell>
        <mxCell id="7Zuj4coKEwmVLSEirP38-4" value="opis" style="ellipse;whiteSpace=wrap;html=1;aspect=fixed;fontSize=10;fillColor=#dae8fc;strokeColor=#6c8ebf;" parent="1" vertex="1">
          <mxGeometry x="349" y="93" width="50" height="50" as="geometry" />
        </mxCell>
        <mxCell id="7Zuj4coKEwmVLSEirP38-5" value="nazwa" style="ellipse;whiteSpace=wrap;html=1;aspect=fixed;fontSize=10;fillColor=#dae8fc;strokeColor=#6c8ebf;fontStyle=0" parent="1" vertex="1">
          <mxGeometry x="265" y="109" width="66" height="66" as="geometry" />
        </mxCell>
        <mxCell id="7Zuj4coKEwmVLSEirP38-6" value="&lt;i&gt;idpudełka&lt;/i&gt;" style="ellipse;whiteSpace=wrap;html=1;aspect=fixed;fontSize=10;fillColor=#dae8fc;strokeColor=#6c8ebf;" parent="1" vertex="1">
          <mxGeometry x="274" y="197" width="50" height="50" as="geometry" />
        </mxCell>
        <mxCell id="7Zuj4coKEwmVLSEirP38-12" value="zawartość" style="strokeWidth=2;whiteSpace=wrap;html=1;align=center;fontSize=13;fontFamily=Helvetica;fontColor=#000000;strokeColor=#d79b00;fillColor=#ffe6cc;" parent="1" vertex="1">
          <mxGeometry x="723" y="157" width="70" height="70" as="geometry" />
        </mxCell>
        <mxCell id="7Zuj4coKEwmVLSEirP38-13" value="&lt;font style=&quot;font-size: 10px;&quot;&gt;CZEKOLADKI&lt;/font&gt;" style="strokeWidth=2;whiteSpace=wrap;html=1;align=center;fontSize=13;fontFamily=Helvetica;fontColor=#000000;strokeColor=#d79b00;fillColor=#ffe6cc;" parent="1" vertex="1">
          <mxGeometry x="725" y="360" width="66" height="70" as="geometry" />
        </mxCell>
        <mxCell id="7Zuj4coKEwmVLSEirP38-15" value="artykuły" style="strokeWidth=2;whiteSpace=wrap;html=1;align=center;fontSize=13;fontFamily=Helvetica;fontColor=#000000;strokeColor=#d79b00;fillColor=#ffe6cc;" parent="1" vertex="1">
          <mxGeometry x="351" y="368" width="70" height="70" as="geometry" />
        </mxCell>
        <mxCell id="7Zuj4coKEwmVLSEirP38-17" value="sztuka" style="ellipse;whiteSpace=wrap;html=1;aspect=fixed;fontSize=10;fillColor=#dae8fc;strokeColor=#6c8ebf;" parent="1" vertex="1">
          <mxGeometry x="273" y="347" width="50" height="50" as="geometry" />
        </mxCell>
        <mxCell id="7Zuj4coKEwmVLSEirP38-19" value="Idpudełka" style="shape=rhombus;strokeWidth=2;fontSize=13;perimeter=rhombusPerimeter;whiteSpace=wrap;html=1;align=center;fillColor=#d5e8d4;strokeColor=#82b366;" parent="1" vertex="1">
          <mxGeometry x="546" y="157" width="70" height="70" as="geometry" />
        </mxCell>
        <mxCell id="7Zuj4coKEwmVLSEirP38-21" style="edgeStyle=orthogonalEdgeStyle;rounded=0;html=1;exitX=0.5;exitY=1;endArrow=none;endFill=0;jettySize=auto;orthogonalLoop=1;fontSize=12;startArrow=ERmany;startFill=0;entryX=0;entryY=0.5;entryDx=0;entryDy=0;" parent="1" source="7Zuj4coKEwmVLSEirP38-12" target="7Zuj4coKEwmVLSEirP38-23" edge="1">
          <mxGeometry relative="1" as="geometry">
            <mxPoint x="765" y="245" as="targetPoint" />
            <Array as="points" />
          </mxGeometry>
        </mxCell>
        <mxCell id="7Zuj4coKEwmVLSEirP38-22" style="edgeStyle=orthogonalEdgeStyle;rounded=0;html=1;exitX=1;exitY=0.5;entryX=0.5;entryY=0;endArrow=ERone;endFill=0;jettySize=auto;orthogonalLoop=1;fontSize=12;" parent="1" source="7Zuj4coKEwmVLSEirP38-23" target="7Zuj4coKEwmVLSEirP38-13" edge="1">
          <mxGeometry relative="1" as="geometry">
            <mxPoint x="750" y="428" as="sourcePoint" />
          </mxGeometry>
        </mxCell>
        <mxCell id="7Zuj4coKEwmVLSEirP38-23" value="Idczekoladki" style="shape=rhombus;strokeWidth=2;fontSize=13;perimeter=rhombusPerimeter;whiteSpace=wrap;html=1;align=center;direction=south;fillColor=#d5e8d4;strokeColor=#82b366;" parent="1" vertex="1">
          <mxGeometry x="721" y="251" width="74" height="74" as="geometry" />
        </mxCell>
        <mxCell id="7Zuj4coKEwmVLSEirP38-24" style="edgeStyle=orthogonalEdgeStyle;rounded=0;html=1;exitX=1;exitY=0.5;entryX=0;entryY=0.5;endArrow=ERmany;endFill=0;jettySize=auto;orthogonalLoop=1;fontSize=12;" parent="1" source="7Zuj4coKEwmVLSEirP38-19" target="7Zuj4coKEwmVLSEirP38-12" edge="1">
          <mxGeometry relative="1" as="geometry" />
        </mxCell>
        <mxCell id="7Zuj4coKEwmVLSEirP38-30" value="sztuka" style="ellipse;whiteSpace=wrap;html=1;aspect=fixed;fontSize=10;fillColor=#dae8fc;strokeColor=#6c8ebf;" parent="1" vertex="1">
          <mxGeometry x="839" y="93" width="66" height="66" as="geometry" />
        </mxCell>
        <mxCell id="7Zuj4coKEwmVLSEirP38-35" style="edgeStyle=none;rounded=0;html=1;endArrow=none;endFill=0;jettySize=auto;orthogonalLoop=1;fontSize=12;" parent="1" source="7Zuj4coKEwmVLSEirP38-12" target="7Zuj4coKEwmVLSEirP38-30" edge="1">
          <mxGeometry relative="1" as="geometry" />
        </mxCell>
        <mxCell id="7Zuj4coKEwmVLSEirP38-37" style="edgeStyle=none;rounded=0;html=1;endArrow=none;endFill=0;jettySize=auto;orthogonalLoop=1;fontSize=12;" parent="1" source="7Zuj4coKEwmVLSEirP38-17" target="7Zuj4coKEwmVLSEirP38-15" edge="1">
          <mxGeometry relative="1" as="geometry" />
        </mxCell>
        <mxCell id="7Zuj4coKEwmVLSEirP38-38" style="edgeStyle=none;rounded=0;html=1;endArrow=none;endFill=0;jettySize=auto;orthogonalLoop=1;fontSize=12;" parent="1" source="7Zuj4coKEwmVLSEirP38-5" target="7Zuj4coKEwmVLSEirP38-3" edge="1">
          <mxGeometry relative="1" as="geometry" />
        </mxCell>
        <mxCell id="7Zuj4coKEwmVLSEirP38-39" style="edgeStyle=none;rounded=0;html=1;endArrow=none;endFill=0;jettySize=auto;orthogonalLoop=1;fontSize=12;" parent="1" source="7Zuj4coKEwmVLSEirP38-4" target="7Zuj4coKEwmVLSEirP38-3" edge="1">
          <mxGeometry relative="1" as="geometry" />
        </mxCell>
        <mxCell id="7Zuj4coKEwmVLSEirP38-40" style="edgeStyle=none;rounded=0;html=1;endArrow=none;endFill=0;jettySize=auto;orthogonalLoop=1;fontSize=12;" parent="1" source="7Zuj4coKEwmVLSEirP38-6" target="7Zuj4coKEwmVLSEirP38-3" edge="1">
          <mxGeometry relative="1" as="geometry">
            <mxPoint x="341" y="258" as="sourcePoint" />
          </mxGeometry>
        </mxCell>
        <mxCell id="7Zuj4coKEwmVLSEirP38-41" value="&lt;span&gt;Nazwa&lt;/span&gt;" style="ellipse;whiteSpace=wrap;html=1;aspect=fixed;fontSize=10;fillColor=#dae8fc;strokeColor=default;fontStyle=0" parent="1" vertex="1">
          <mxGeometry x="806" y="318" width="66" height="66" as="geometry" />
        </mxCell>
        <mxCell id="7Zuj4coKEwmVLSEirP38-42" value="Idczekoladki" style="ellipse;whiteSpace=wrap;html=1;aspect=fixed;fontSize=10;fillColor=#dae8fc;strokeColor=#6c8ebf;" parent="1" vertex="1">
          <mxGeometry x="839" y="385" width="55" height="55" as="geometry" />
        </mxCell>
        <mxCell id="7Zuj4coKEwmVLSEirP38-43" value="rodzaj czekoladki" style="ellipse;whiteSpace=wrap;html=1;aspect=fixed;fontSize=10;fillColor=#dae8fc;strokeColor=#6c8ebf;" parent="1" vertex="1">
          <mxGeometry x="790" y="440" width="49" height="49" as="geometry" />
        </mxCell>
        <mxCell id="7Zuj4coKEwmVLSEirP38-44" value="&lt;i&gt;rodzaj orzechów&lt;/i&gt;" style="ellipse;whiteSpace=wrap;html=1;aspect=fixed;fontSize=9;fillColor=#dae8fc;strokeColor=#6c8ebf;" parent="1" vertex="1">
          <mxGeometry x="732" y="448" width="49" height="49" as="geometry" />
        </mxCell>
        <mxCell id="7Zuj4coKEwmVLSEirP38-45" style="rounded=0;html=1;startArrow=none;startFill=0;endArrow=none;endFill=0;jettySize=auto;orthogonalLoop=1;fontSize=10;" parent="1" source="7Zuj4coKEwmVLSEirP38-41" target="7Zuj4coKEwmVLSEirP38-13" edge="1">
          <mxGeometry relative="1" as="geometry" />
        </mxCell>
        <mxCell id="7Zuj4coKEwmVLSEirP38-46" style="edgeStyle=none;rounded=0;html=1;startArrow=none;startFill=0;endArrow=none;endFill=0;jettySize=auto;orthogonalLoop=1;fontSize=10;" parent="1" source="7Zuj4coKEwmVLSEirP38-42" target="7Zuj4coKEwmVLSEirP38-13" edge="1">
          <mxGeometry relative="1" as="geometry" />
        </mxCell>
        <mxCell id="7Zuj4coKEwmVLSEirP38-47" style="edgeStyle=none;rounded=0;html=1;startArrow=none;startFill=0;endArrow=none;endFill=0;jettySize=auto;orthogonalLoop=1;fontSize=10;" parent="1" source="7Zuj4coKEwmVLSEirP38-43" target="7Zuj4coKEwmVLSEirP38-13" edge="1">
          <mxGeometry relative="1" as="geometry" />
        </mxCell>
        <mxCell id="7Zuj4coKEwmVLSEirP38-48" style="edgeStyle=none;rounded=0;html=1;startArrow=none;startFill=0;endArrow=none;endFill=0;jettySize=auto;orthogonalLoop=1;fontSize=10;" parent="1" source="7Zuj4coKEwmVLSEirP38-44" target="7Zuj4coKEwmVLSEirP38-13" edge="1">
          <mxGeometry relative="1" as="geometry" />
        </mxCell>
        <mxCell id="7Zuj4coKEwmVLSEirP38-49" value="cena" style="ellipse;whiteSpace=wrap;html=1;aspect=fixed;fontSize=10;fillColor=#dae8fc;strokeColor=#6c8ebf;" parent="1" vertex="1">
          <mxGeometry x="421" y="92" width="50" height="50" as="geometry" />
        </mxCell>
        <mxCell id="7Zuj4coKEwmVLSEirP38-50" style="rounded=0;html=1;startArrow=none;startFill=0;endArrow=none;endFill=0;jettySize=auto;orthogonalLoop=1;fontSize=10;" parent="1" source="7Zuj4coKEwmVLSEirP38-49" target="7Zuj4coKEwmVLSEirP38-3" edge="1">
          <mxGeometry relative="1" as="geometry" />
        </mxCell>
        <mxCell id="7Zuj4coKEwmVLSEirP38-51" value="&lt;i&gt;rodzaj nadzienia&lt;/i&gt;" style="ellipse;whiteSpace=wrap;html=1;aspect=fixed;fontSize=9;fillColor=#dae8fc;strokeColor=#6c8ebf;" parent="1" vertex="1">
          <mxGeometry x="672" y="440" width="49" height="49" as="geometry" />
        </mxCell>
        <mxCell id="7Zuj4coKEwmVLSEirP38-52" style="rounded=0;html=1;startArrow=none;startFill=0;endArrow=none;endFill=0;jettySize=auto;orthogonalLoop=1;strokeColor=#000066;fontSize=13;" parent="1" source="7Zuj4coKEwmVLSEirP38-51" target="7Zuj4coKEwmVLSEirP38-13" edge="1">
          <mxGeometry relative="1" as="geometry" />
        </mxCell>
        <mxCell id="7Zuj4coKEwmVLSEirP38-56" value="&lt;i&gt;masa&lt;/i&gt;" style="ellipse;whiteSpace=wrap;html=1;aspect=fixed;fontSize=9;fillColor=#dae8fc;strokeColor=#6c8ebf;" parent="1" vertex="1">
          <mxGeometry x="632" y="399" width="49" height="49" as="geometry" />
        </mxCell>
        <mxCell id="7Zuj4coKEwmVLSEirP38-57" style="edgeStyle=none;rounded=0;html=1;startArrow=none;startFill=0;endArrow=none;endFill=0;jettySize=auto;orthogonalLoop=1;strokeColor=#000066;fontSize=13;" parent="1" source="7Zuj4coKEwmVLSEirP38-56" target="7Zuj4coKEwmVLSEirP38-13" edge="1">
          <mxGeometry relative="1" as="geometry" />
        </mxCell>
        <mxCell id="7Zuj4coKEwmVLSEirP38-63" value="&lt;i&gt;opis&lt;/i&gt;" style="ellipse;whiteSpace=wrap;html=1;aspect=fixed;fontSize=9;fillColor=#dae8fc;strokeColor=#6c8ebf;" parent="1" vertex="1">
          <mxGeometry x="615" y="328" width="49" height="49" as="geometry" />
        </mxCell>
        <mxCell id="7Zuj4coKEwmVLSEirP38-64" value="&lt;i&gt;koszt&lt;/i&gt;" style="ellipse;whiteSpace=wrap;html=1;aspect=fixed;fontSize=9;fillColor=#dae8fc;strokeColor=#6c8ebf;" parent="1" vertex="1">
          <mxGeometry x="665" y="279" width="49" height="49" as="geometry" />
        </mxCell>
        <mxCell id="7Zuj4coKEwmVLSEirP38-66" value="" style="endArrow=none;html=1;rounded=0;entryX=0;entryY=0.25;entryDx=0;entryDy=0;exitX=1;exitY=0.5;exitDx=0;exitDy=0;" parent="1" source="7Zuj4coKEwmVLSEirP38-63" target="7Zuj4coKEwmVLSEirP38-13" edge="1">
          <mxGeometry width="50" height="50" relative="1" as="geometry">
            <mxPoint x="665" y="365" as="sourcePoint" />
            <mxPoint x="675" y="445" as="targetPoint" />
          </mxGeometry>
        </mxCell>
        <mxCell id="7Zuj4coKEwmVLSEirP38-67" value="" style="endArrow=none;html=1;rounded=0;entryX=0.738;entryY=0.976;entryDx=0;entryDy=0;entryPerimeter=0;exitX=0;exitY=0;exitDx=0;exitDy=0;" parent="1" source="7Zuj4coKEwmVLSEirP38-13" target="7Zuj4coKEwmVLSEirP38-64" edge="1">
          <mxGeometry width="50" height="50" relative="1" as="geometry">
            <mxPoint x="675" y="445" as="sourcePoint" />
            <mxPoint x="725" y="395" as="targetPoint" />
          </mxGeometry>
        </mxCell>
        <mxCell id="pSrpqSobwJt8O89GEOQ2-1" style="edgeStyle=orthogonalEdgeStyle;rounded=0;html=1;exitX=1;exitY=0.5;entryX=0;entryY=0.5;endArrow=none;endFill=0;jettySize=auto;orthogonalLoop=1;fontSize=12;startArrow=ERmany;startFill=0;exitDx=0;exitDy=0;entryDx=0;entryDy=0;" parent="1" source="7Zuj4coKEwmVLSEirP38-15" target="7Zuj4coKEwmVLSEirP38-19" edge="1">
          <mxGeometry relative="1" as="geometry">
            <Array as="points">
              <mxPoint x="515" y="403" />
              <mxPoint x="515" y="192" />
            </Array>
            <mxPoint x="431" y="221" as="sourcePoint" />
            <mxPoint x="556" y="322" as="targetPoint" />
          </mxGeometry>
        </mxCell>
        <mxCell id="pSrpqSobwJt8O89GEOQ2-2" value="stan" style="ellipse;whiteSpace=wrap;html=1;aspect=fixed;fontSize=10;fillColor=#dae8fc;strokeColor=#6c8ebf;" parent="1" vertex="1">
          <mxGeometry x="351" y="255" width="50" height="50" as="geometry" />
        </mxCell>
        <mxCell id="pSrpqSobwJt8O89GEOQ2-3" style="edgeStyle=none;rounded=0;html=1;endArrow=none;endFill=0;jettySize=auto;orthogonalLoop=1;fontSize=12;exitX=0.5;exitY=0;exitDx=0;exitDy=0;entryX=0.334;entryY=1.057;entryDx=0;entryDy=0;entryPerimeter=0;" parent="1" source="pSrpqSobwJt8O89GEOQ2-2" target="7Zuj4coKEwmVLSEirP38-3" edge="1">
          <mxGeometry relative="1" as="geometry">
            <mxPoint x="333" y="224" as="sourcePoint" />
            <mxPoint x="361" y="215" as="targetPoint" />
          </mxGeometry>
        </mxCell>
        <mxCell id="pSrpqSobwJt8O89GEOQ2-4" value="id zamówienia" style="shape=rhombus;strokeWidth=2;fontSize=13;perimeter=rhombusPerimeter;whiteSpace=wrap;html=1;align=center;fillColor=#d5e8d4;strokeColor=#82b366;" parent="1" vertex="1">
          <mxGeometry x="349" y="480" width="70" height="70" as="geometry" />
        </mxCell>
        <mxCell id="pSrpqSobwJt8O89GEOQ2-5" value="" style="endArrow=ERmany;html=1;rounded=0;entryX=0.5;entryY=1;entryDx=0;entryDy=0;exitX=0.5;exitY=0;exitDx=0;exitDy=0;startArrow=none;startFill=0;endFill=0;" parent="1" source="pSrpqSobwJt8O89GEOQ2-4" target="7Zuj4coKEwmVLSEirP38-15" edge="1">
          <mxGeometry width="50" height="50" relative="1" as="geometry">
            <mxPoint x="365" y="555" as="sourcePoint" />
            <mxPoint x="415" y="505" as="targetPoint" />
          </mxGeometry>
        </mxCell>
        <mxCell id="pSrpqSobwJt8O89GEOQ2-6" value="zamówienie" style="strokeWidth=2;whiteSpace=wrap;html=1;align=center;fontSize=13;fontFamily=Helvetica;fontColor=#000000;strokeColor=#d79b00;fillColor=#ffe6cc;" parent="1" vertex="1">
          <mxGeometry x="351" y="595" width="70" height="70" as="geometry" />
        </mxCell>
        <mxCell id="pSrpqSobwJt8O89GEOQ2-7" value="data realizacji" style="ellipse;whiteSpace=wrap;html=1;aspect=fixed;fontSize=10;fillColor=#dae8fc;strokeColor=#6c8ebf;" parent="1" vertex="1">
          <mxGeometry x="265" y="605" width="50" height="50" as="geometry" />
        </mxCell>
        <mxCell id="pSrpqSobwJt8O89GEOQ2-8" value="" style="endArrow=none;html=1;rounded=0;exitX=0.996;exitY=0.66;exitDx=0;exitDy=0;exitPerimeter=0;entryX=0;entryY=0.5;entryDx=0;entryDy=0;" parent="1" source="pSrpqSobwJt8O89GEOQ2-7" target="pSrpqSobwJt8O89GEOQ2-6" edge="1">
          <mxGeometry width="50" height="50" relative="1" as="geometry">
            <mxPoint x="465" y="585" as="sourcePoint" />
            <mxPoint x="515" y="535" as="targetPoint" />
          </mxGeometry>
        </mxCell>
        <mxCell id="pSrpqSobwJt8O89GEOQ2-10" value="idklienta" style="shape=rhombus;strokeWidth=2;fontSize=13;perimeter=rhombusPerimeter;whiteSpace=wrap;html=1;align=center;fillColor=#d5e8d4;strokeColor=#82b366;" parent="1" vertex="1">
          <mxGeometry x="455" y="595" width="70" height="70" as="geometry" />
        </mxCell>
        <mxCell id="pSrpqSobwJt8O89GEOQ2-11" value="" style="endArrow=none;html=1;rounded=0;exitX=1;exitY=0.5;exitDx=0;exitDy=0;entryX=0;entryY=0.5;entryDx=0;entryDy=0;startArrow=ERmany;startFill=0;" parent="1" source="pSrpqSobwJt8O89GEOQ2-6" target="pSrpqSobwJt8O89GEOQ2-10" edge="1">
          <mxGeometry width="50" height="50" relative="1" as="geometry">
            <mxPoint x="465" y="615" as="sourcePoint" />
            <mxPoint x="515" y="565" as="targetPoint" />
          </mxGeometry>
        </mxCell>
        <mxCell id="pSrpqSobwJt8O89GEOQ2-12" value="&lt;font style=&quot;font-size: 10px;&quot;&gt;klienci&lt;/font&gt;" style="strokeWidth=2;whiteSpace=wrap;html=1;align=center;fontSize=13;fontFamily=Helvetica;fontColor=#000000;strokeColor=#d79b00;fillColor=#ffe6cc;" parent="1" vertex="1">
          <mxGeometry x="569" y="595.5" width="66" height="70" as="geometry" />
        </mxCell>
        <mxCell id="pSrpqSobwJt8O89GEOQ2-13" value="&lt;i&gt;nazwa&lt;/i&gt;" style="ellipse;whiteSpace=wrap;html=1;aspect=fixed;fontSize=9;fillColor=#dae8fc;strokeColor=#6c8ebf;" parent="1" vertex="1">
          <mxGeometry x="577.5" y="525.5" width="49" height="49" as="geometry" />
        </mxCell>
        <mxCell id="pSrpqSobwJt8O89GEOQ2-14" value="&lt;i&gt;ulica&lt;/i&gt;" style="ellipse;whiteSpace=wrap;html=1;aspect=fixed;fontSize=9;fillColor=#dae8fc;strokeColor=#6c8ebf;" parent="1" vertex="1">
          <mxGeometry x="654" y="550.5" width="49" height="49" as="geometry" />
        </mxCell>
        <mxCell id="pSrpqSobwJt8O89GEOQ2-15" value="&lt;i&gt;miejscowość&lt;/i&gt;" style="ellipse;whiteSpace=wrap;html=1;aspect=fixed;fontSize=9;fillColor=#dae8fc;strokeColor=#6c8ebf;" parent="1" vertex="1">
          <mxGeometry x="672" y="616.5" width="49" height="49" as="geometry" />
        </mxCell>
        <mxCell id="pSrpqSobwJt8O89GEOQ2-16" value="&lt;i&gt;kod&lt;/i&gt;" style="ellipse;whiteSpace=wrap;html=1;aspect=fixed;fontSize=9;fillColor=#dae8fc;strokeColor=#6c8ebf;" parent="1" vertex="1">
          <mxGeometry x="628.5" y="685.5" width="49" height="49" as="geometry" />
        </mxCell>
        <mxCell id="pSrpqSobwJt8O89GEOQ2-17" value="&lt;i&gt;telefon&lt;/i&gt;" style="ellipse;whiteSpace=wrap;html=1;aspect=fixed;fontSize=9;fillColor=#dae8fc;strokeColor=#6c8ebf;" parent="1" vertex="1">
          <mxGeometry x="528.5" y="675.5" width="49" height="49" as="geometry" />
        </mxCell>
        <mxCell id="pSrpqSobwJt8O89GEOQ2-18" value="" style="endArrow=ERone;html=1;rounded=0;exitX=1;exitY=0.5;exitDx=0;exitDy=0;entryX=0;entryY=0.5;entryDx=0;entryDy=0;endFill=0;" parent="1" source="pSrpqSobwJt8O89GEOQ2-10" target="pSrpqSobwJt8O89GEOQ2-12" edge="1">
          <mxGeometry width="50" height="50" relative="1" as="geometry">
            <mxPoint x="645" y="615" as="sourcePoint" />
            <mxPoint x="695" y="565" as="targetPoint" />
          </mxGeometry>
        </mxCell>
        <mxCell id="pSrpqSobwJt8O89GEOQ2-19" value="" style="endArrow=none;html=1;rounded=0;exitX=0.5;exitY=1;exitDx=0;exitDy=0;entryX=0.5;entryY=0;entryDx=0;entryDy=0;" parent="1" source="pSrpqSobwJt8O89GEOQ2-13" target="pSrpqSobwJt8O89GEOQ2-12" edge="1">
          <mxGeometry width="50" height="50" relative="1" as="geometry">
            <mxPoint x="487" y="640.5" as="sourcePoint" />
            <mxPoint x="579" y="640.5" as="targetPoint" />
          </mxGeometry>
        </mxCell>
        <mxCell id="pSrpqSobwJt8O89GEOQ2-20" value="" style="endArrow=none;html=1;rounded=0;exitX=0;exitY=1;exitDx=0;exitDy=0;entryX=0.988;entryY=0.34;entryDx=0;entryDy=0;entryPerimeter=0;" parent="1" source="pSrpqSobwJt8O89GEOQ2-14" target="pSrpqSobwJt8O89GEOQ2-12" edge="1">
          <mxGeometry width="50" height="50" relative="1" as="geometry">
            <mxPoint x="497" y="650.5" as="sourcePoint" />
            <mxPoint x="589" y="650.5" as="targetPoint" />
          </mxGeometry>
        </mxCell>
        <mxCell id="pSrpqSobwJt8O89GEOQ2-21" value="" style="endArrow=none;html=1;rounded=0;exitX=0.988;exitY=0.649;exitDx=0;exitDy=0;entryX=0;entryY=0.5;entryDx=0;entryDy=0;exitPerimeter=0;" parent="1" source="pSrpqSobwJt8O89GEOQ2-12" target="pSrpqSobwJt8O89GEOQ2-15" edge="1">
          <mxGeometry width="50" height="50" relative="1" as="geometry">
            <mxPoint x="507" y="660.5" as="sourcePoint" />
            <mxPoint x="599" y="660.5" as="targetPoint" />
          </mxGeometry>
        </mxCell>
        <mxCell id="pSrpqSobwJt8O89GEOQ2-22" value="" style="endArrow=none;html=1;rounded=0;exitX=0.673;exitY=0.969;exitDx=0;exitDy=0;exitPerimeter=0;" parent="1" source="pSrpqSobwJt8O89GEOQ2-12" target="pSrpqSobwJt8O89GEOQ2-16" edge="1">
          <mxGeometry width="50" height="50" relative="1" as="geometry">
            <mxPoint x="517" y="670.5" as="sourcePoint" />
            <mxPoint x="609" y="670.5" as="targetPoint" />
          </mxGeometry>
        </mxCell>
        <mxCell id="pSrpqSobwJt8O89GEOQ2-23" value="" style="endArrow=none;html=1;rounded=0;exitX=1;exitY=0;exitDx=0;exitDy=0;entryX=0.25;entryY=1;entryDx=0;entryDy=0;" parent="1" source="pSrpqSobwJt8O89GEOQ2-17" target="pSrpqSobwJt8O89GEOQ2-12" edge="1">
          <mxGeometry width="50" height="50" relative="1" as="geometry">
            <mxPoint x="527" y="680.5" as="sourcePoint" />
            <mxPoint x="619" y="680.5" as="targetPoint" />
          </mxGeometry>
        </mxCell>
        <mxCell id="iaAqohkdTmGgQOR6ccey-2" value="" style="endArrow=none;html=1;rounded=0;entryX=0.5;entryY=1;entryDx=0;entryDy=0;exitX=0.5;exitY=0;exitDx=0;exitDy=0;endFill=0;startArrow=ERone;startFill=0;" edge="1" parent="1" source="pSrpqSobwJt8O89GEOQ2-6" target="pSrpqSobwJt8O89GEOQ2-4">
          <mxGeometry width="50" height="50" relative="1" as="geometry">
            <mxPoint x="435" y="495" as="sourcePoint" />
            <mxPoint x="485" y="445" as="targetPoint" />
          </mxGeometry>
        </mxCell>
        <mxCell id="iaAqohkdTmGgQOR6ccey-3" value="" style="endArrow=none;html=1;rounded=0;exitX=1;exitY=0.5;exitDx=0;exitDy=0;entryX=0;entryY=0.5;entryDx=0;entryDy=0;startArrow=ERone;startFill=0;endFill=0;" edge="1" parent="1" source="7Zuj4coKEwmVLSEirP38-3" target="7Zuj4coKEwmVLSEirP38-19">
          <mxGeometry width="50" height="50" relative="1" as="geometry">
            <mxPoint x="505" y="435" as="sourcePoint" />
            <mxPoint x="555" y="385" as="targetPoint" />
          </mxGeometry>
        </mxCell>
      </root>
    </mxGraphModel>
  </diagram>
</mxfile>
